<svg width="38" height="30" viewBox="0 0 38 30" fill="none" xmlns="http://www.w3.org/2000/svg">
<path d="M37.2058 4.09875C36.7688 2.48625 35.4806 1.215 33.8466 0.78375C30.8826 3.91155e-07 19 0 19 0C19 0 7.1174 3.91155e-07 4.1534 0.78375C2.5194 1.215 1.2312 2.48625 0.7942 4.09875C-5.66244e-08 7.02375 0 15 0 15C0 15 -5.66244e-08 22.9762 0.7942 25.9012C1.2312 27.5137 2.5194 28.785 4.1534 29.2163C7.1174 30 19 30 19 30C19 30 30.8826 30 33.8466 29.2163C35.4825 28.785 36.7688 27.5137 37.2058 25.9012C38 22.9762 38 15 38 15C38 15 38 7.02375 37.2058 4.09875ZM15.2 21.495V8.505L26.6 15L15.2 21.495Z" fill="#FFFDFA"/>
</svg>
