<svg width="40" height="32" viewBox="0 0 40 32" fill="none" xmlns="http://www.w3.org/2000/svg">
<path d="M40 0C38.44 0.925942 35.31 2.18786 33.47 2.55184C33.416 2.56584 33.372 2.58384 33.32 2.59784C31.694 0.993937 29.466 0 27 0C22.03 0 18 4.02975 18 8.99944C18 9.26142 17.978 9.74339 18 9.99937C11.294 9.99937 6.19 6.48759 2.53 1.99988C2.132 2.99981 1.958 4.57971 1.958 6.06362C1.958 8.86545 4.148 11.6173 7.558 13.3232C6.93 13.4852 6.238 13.6012 5.518 13.6012C4.356 13.6012 3.126 13.2952 2 12.3672C2 12.4012 2 12.4332 2 12.4692C2 16.385 6.156 19.0508 9.852 19.7928C9.102 20.2347 7.59 20.2787 6.852 20.2787C6.332 20.2787 4.492 20.0407 4 19.9488C5.028 23.1586 8.736 24.9624 12.27 25.0264C9.506 27.1943 7.588 27.9983 1.928 27.9983H0C3.576 30.2901 8.13 32 12.694 32C27.554 32 36 20.6747 36 9.99937C36 9.82738 35.996 9.46741 35.99 9.10543C35.99 9.06943 36 9.03543 36 8.99944C36 8.94544 35.984 8.89344 35.984 8.83945C35.978 8.56746 35.972 8.31348 35.966 8.18149C37.546 7.04156 38.916 5.61965 40 3.99975C38.55 4.64371 36.994 5.07568 35.36 5.27167C37.028 4.27173 39.398 1.88788 40 0Z" fill="#FFFDFA"/>
</svg>
